<svg width="220" height="77" viewBox="0 0 220 77" fill="none" xmlns="http://www.w3.org/2000/svg">
<path d="M160.461 56H155.773L143.281 39.3828L139.695 42.5703V56H135.711V21.7344H139.695V38.7266L155.234 21.7344H159.945L146.164 36.6172L160.461 56ZM168.5 56H164.609V19.5312H168.5V56ZM180.641 56H176.75V30.3125H180.641V56ZM176.422 23.3516C176.422 22.4609 176.641 21.8125 177.078 21.4062C177.516 20.9844 178.062 20.7734 178.719 20.7734C179.344 20.7734 179.883 20.9844 180.336 21.4062C180.789 21.8281 181.016 22.4766 181.016 23.3516C181.016 24.2266 180.789 24.8828 180.336 25.3203C179.883 25.7422 179.344 25.9531 178.719 25.9531C178.062 25.9531 177.516 25.7422 177.078 25.3203C176.641 24.8828 176.422 24.2266 176.422 23.3516ZM205.461 48.9922C205.461 51.3828 204.57 53.2266 202.789 54.5234C201.008 55.8203 198.508 56.4688 195.289 56.4688C191.883 56.4688 189.227 55.9297 187.32 54.8516V51.2422C188.555 51.8672 189.875 52.3594 191.281 52.7188C192.703 53.0781 194.07 53.2578 195.383 53.2578C197.414 53.2578 198.977 52.9375 200.07 52.2969C201.164 51.6406 201.711 50.6484 201.711 49.3203C201.711 48.3203 201.273 47.4688 200.398 46.7656C199.539 46.0469 197.852 45.2031 195.336 44.2344C192.945 43.3438 191.242 42.5703 190.227 41.9141C189.227 41.2422 188.477 40.4844 187.977 39.6406C187.492 38.7969 187.25 37.7891 187.25 36.6172C187.25 34.5234 188.102 32.875 189.805 31.6719C191.508 30.4531 193.844 29.8438 196.812 29.8438C199.578 29.8438 202.281 30.4062 204.922 31.5312L203.539 34.6953C200.961 33.6328 198.625 33.1016 196.531 33.1016C194.688 33.1016 193.297 33.3906 192.359 33.9688C191.422 34.5469 190.953 35.3438 190.953 36.3594C190.953 37.0469 191.125 37.6328 191.469 38.1172C191.828 38.6016 192.398 39.0625 193.18 39.5C193.961 39.9375 195.461 40.5703 197.68 41.3984C200.727 42.5078 202.781 43.625 203.844 44.75C204.922 45.875 205.461 47.2891 205.461 48.9922ZM215.703 56H211.812V30.3125H215.703V56ZM211.484 23.3516C211.484 22.4609 211.703 21.8125 212.141 21.4062C212.578 20.9844 213.125 20.7734 213.781 20.7734C214.406 20.7734 214.945 20.9844 215.398 21.4062C215.852 21.8281 216.078 22.4766 216.078 23.3516C216.078 24.2266 215.852 24.8828 215.398 25.3203C214.945 25.7422 214.406 25.9531 213.781 25.9531C213.125 25.9531 212.578 25.7422 212.141 25.3203C211.703 24.8828 211.484 24.2266 211.484 23.3516Z" fill="#393B4A"/>
<path d="M118.222 34.5172C111.716 26.419 88.4836 0 59.8078 0C31.1319 0 7.89914 26.419 1.39397 34.5172C-0.464655 36.7741 -0.464655 40.0931 1.39397 42.4828C7.89914 50.581 31.1319 77 59.8078 77C88.4836 77 111.716 50.581 118.222 42.4828C120.08 40.2259 120.08 36.9069 118.222 34.5172Z" fill="#E53E44"/>
<line x1="50" y1="15" x2="50" y2="63" stroke="white" stroke-width="8"/>
<path d="M73.8284 18L48.8284 43" stroke="white" stroke-width="8"/>
<path d="M49 37L72.5 60.5" stroke="white" stroke-width="8"/>
</svg>
